# xmcd
#
# Track frame offsets:
#	150
#	32647
#	53206
#	68201
#	88068
#	107555
#	121306
#	142406
#	160718
#	175236
#	192113
#	211152
#	227460
#	244041
#	269437
#	284872
#	302316
#
# Disc length: 4280
#
# Revision: 2
# Processed by: cddbd v1.5.1PL0 Copyright (c) Steve Scherf et al.
# Submitted via: EasyCDDAExtractor 7.0.6.1
# Normalized: r1:DSETVAR1
#
DISCID=f110b611
DTITLE=Various Artist - Now 4 CD2
DYEAR=2004
DGENRE=Pop
TTITLE0=Robbie Williams - Me And My Monkey
TTITLE1=Eros Ramazzotti - Un Attimo Di Pace
TTITLE2=Norah Jones - Sunrise
TTITLE3=Christina Aguilera - The Voice Within
TTITLE4=Kylie Minogue - Red Blooded Woman
TTITLE5=Kelis - Milkshake
TTITLE6=Basement Jaxx ft. Lisa Kekaula - Good Luck
TTITLE7=Reactor - Feeling The Love
TTITLE8=Pink - Trouble
TTITLE9=Melanie C - Melt
TTITLE10=Raining Pleasure - Dancing Queen
TTITLE11=Oi Va Voi - Refugee
TTITLE12=Air - Cherry Blossom Girl (Radio Mix)
TTITLE13=Moloko - Cannot Contain This
TTITLE14=Bretine Zetlitz - For Fun
TTITLE15=Skin - Getting Away With It
TTITLE16=Kurt Nilsen - She's So High
EXTD=
EXTT0=
EXTT1=
EXTT2=
EXTT3=
EXTT4=
EXTT5=
EXTT6=
EXTT7=
EXTT8=
EXTT9=
EXTT10=
EXTT11=
EXTT12=
EXTT13=
EXTT14=
EXTT15=
EXTT16=
PLAYORDER=
